<mxfile host="app.diagrams.net" agent="Mozilla/5.0 (Windows NT 10.0; Win64; x64) AppleWebKit/537.36 (KHTML, like Gecko) Chrome/132.0.0.0 Safari/537.36" version="26.0.10" pages="2">
  <diagram name="Page-1" id="CK2PWqADeRjJKw2WGRLy">
    <mxGraphModel dx="1088" dy="1638" grid="1" gridSize="10" guides="1" tooltips="1" connect="1" arrows="1" fold="1" page="1" pageScale="1" pageWidth="827" pageHeight="1169" math="0" shadow="0">
      <root>
        <mxCell id="0" />
        <mxCell id="1" parent="0" />
        <mxCell id="FzUE8dfUpmqvPbVTO9Rr-1" value="AWS Account" style="points=[[0,0],[0.25,0],[0.5,0],[0.75,0],[1,0],[1,0.25],[1,0.5],[1,0.75],[1,1],[0.75,1],[0.5,1],[0.25,1],[0,1],[0,0.75],[0,0.5],[0,0.25]];outlineConnect=0;gradientColor=none;html=1;whiteSpace=wrap;fontSize=12;fontStyle=0;container=1;pointerEvents=0;collapsible=0;recursiveResize=0;shape=mxgraph.aws4.group;grIcon=mxgraph.aws4.group_account;strokeColor=#CD2264;fillColor=none;verticalAlign=top;align=left;spacingLeft=30;fontColor=#CD2264;dashed=0;" vertex="1" parent="1">
          <mxGeometry x="120" y="50" width="600" height="390" as="geometry" />
        </mxCell>
        <mxCell id="FzUE8dfUpmqvPbVTO9Rr-35" value="" style="rounded=0;whiteSpace=wrap;html=1;" vertex="1" parent="FzUE8dfUpmqvPbVTO9Rr-1">
          <mxGeometry x="420" y="-30" width="120" height="60" as="geometry" />
        </mxCell>
        <mxCell id="FzUE8dfUpmqvPbVTO9Rr-37" value="ECR Repository" style="text;html=1;align=center;verticalAlign=middle;whiteSpace=wrap;rounded=0;" vertex="1" parent="FzUE8dfUpmqvPbVTO9Rr-1">
          <mxGeometry x="440" y="-20" width="70" height="30" as="geometry" />
        </mxCell>
        <mxCell id="FzUE8dfUpmqvPbVTO9Rr-40" value="" style="curved=1;endArrow=classic;html=1;rounded=0;" edge="1" parent="FzUE8dfUpmqvPbVTO9Rr-1" target="FzUE8dfUpmqvPbVTO9Rr-13">
          <mxGeometry width="50" height="50" relative="1" as="geometry">
            <mxPoint x="540" y="25" as="sourcePoint" />
            <mxPoint x="590" y="-25" as="targetPoint" />
            <Array as="points">
              <mxPoint x="590" y="25" />
              <mxPoint x="540" y="-25" />
            </Array>
          </mxGeometry>
        </mxCell>
        <mxCell id="FzUE8dfUpmqvPbVTO9Rr-2" value="VPC" style="sketch=0;outlineConnect=0;gradientColor=none;html=1;whiteSpace=wrap;fontSize=12;fontStyle=0;shape=mxgraph.aws4.group;grIcon=mxgraph.aws4.group_vpc;strokeColor=#879196;fillColor=none;verticalAlign=top;align=left;spacingLeft=30;fontColor=#879196;dashed=0;" vertex="1" parent="1">
          <mxGeometry x="160" y="120" width="520" height="280" as="geometry" />
        </mxCell>
        <mxCell id="FzUE8dfUpmqvPbVTO9Rr-3" value="" style="rounded=1;arcSize=10;dashed=1;strokeColor=#F59D56;fillColor=none;gradientColor=none;dashPattern=8 4;strokeWidth=2;" vertex="1" parent="1">
          <mxGeometry x="200" y="160" width="440" height="80" as="geometry" />
        </mxCell>
        <mxCell id="FzUE8dfUpmqvPbVTO9Rr-4" value="" style="rounded=1;arcSize=10;dashed=1;strokeColor=#F59D56;fillColor=none;gradientColor=none;dashPattern=8 4;strokeWidth=2;" vertex="1" parent="1">
          <mxGeometry x="200" y="280" width="440" height="70" as="geometry" />
        </mxCell>
        <mxCell id="FzUE8dfUpmqvPbVTO9Rr-5" value="Public subnet" style="points=[[0,0],[0.25,0],[0.5,0],[0.75,0],[1,0],[1,0.25],[1,0.5],[1,0.75],[1,1],[0.75,1],[0.5,1],[0.25,1],[0,1],[0,0.75],[0,0.5],[0,0.25]];outlineConnect=0;gradientColor=none;html=1;whiteSpace=wrap;fontSize=12;fontStyle=0;container=1;pointerEvents=0;collapsible=0;recursiveResize=0;shape=mxgraph.aws4.group;grIcon=mxgraph.aws4.group_security_group;grStroke=0;strokeColor=#7AA116;fillColor=#F2F6E8;verticalAlign=top;align=left;spacingLeft=30;fontColor=#248814;dashed=0;" vertex="1" parent="1">
          <mxGeometry x="210" y="140" width="160" height="230" as="geometry" />
        </mxCell>
        <mxCell id="FzUE8dfUpmqvPbVTO9Rr-8" value="Private subnet" style="points=[[0,0],[0.25,0],[0.5,0],[0.75,0],[1,0],[1,0.25],[1,0.5],[1,0.75],[1,1],[0.75,1],[0.5,1],[0.25,1],[0,1],[0,0.75],[0,0.5],[0,0.25]];outlineConnect=0;gradientColor=none;html=1;whiteSpace=wrap;fontSize=12;fontStyle=0;container=1;pointerEvents=0;collapsible=0;recursiveResize=0;shape=mxgraph.aws4.group;grIcon=mxgraph.aws4.group_security_group;grStroke=0;strokeColor=#00A4A6;fillColor=#E6F6F7;verticalAlign=top;align=left;spacingLeft=30;fontColor=#147EBA;dashed=0;" vertex="1" parent="1">
          <mxGeometry x="460" y="140" width="150" height="230" as="geometry" />
        </mxCell>
        <mxCell id="FzUE8dfUpmqvPbVTO9Rr-24" value="" style="outlineConnect=0;dashed=0;verticalLabelPosition=bottom;verticalAlign=top;align=center;html=1;shape=mxgraph.aws3.classic_load_balancer;fillColor=#F58534;gradientColor=none;" vertex="1" parent="FzUE8dfUpmqvPbVTO9Rr-8">
          <mxGeometry x="50" y="110" width="53.8" height="40" as="geometry" />
        </mxCell>
        <mxCell id="FzUE8dfUpmqvPbVTO9Rr-25" value="" style="rounded=0;whiteSpace=wrap;html=1;" vertex="1" parent="FzUE8dfUpmqvPbVTO9Rr-8">
          <mxGeometry x="50" y="180" width="60" height="40" as="geometry" />
        </mxCell>
        <mxCell id="FzUE8dfUpmqvPbVTO9Rr-31" value="ECS Serice" style="text;html=1;align=center;verticalAlign=middle;whiteSpace=wrap;rounded=0;" vertex="1" parent="FzUE8dfUpmqvPbVTO9Rr-8">
          <mxGeometry x="40" y="30" width="70" height="30" as="geometry" />
        </mxCell>
        <mxCell id="FzUE8dfUpmqvPbVTO9Rr-32" value="LB" style="text;html=1;align=center;verticalAlign=middle;whiteSpace=wrap;rounded=0;" vertex="1" parent="FzUE8dfUpmqvPbVTO9Rr-8">
          <mxGeometry x="45" y="90" width="60" height="30" as="geometry" />
        </mxCell>
        <mxCell id="FzUE8dfUpmqvPbVTO9Rr-33" value="TG" style="text;html=1;align=center;verticalAlign=middle;whiteSpace=wrap;rounded=0;" vertex="1" parent="FzUE8dfUpmqvPbVTO9Rr-8">
          <mxGeometry x="46.89999999999998" y="150" width="60" height="30" as="geometry" />
        </mxCell>
        <mxCell id="FzUE8dfUpmqvPbVTO9Rr-41" value="AWS Fargate" style="sketch=0;outlineConnect=0;fontColor=#232F3E;gradientColor=none;strokeColor=#ffffff;fillColor=#232F3E;dashed=0;verticalLabelPosition=middle;verticalAlign=bottom;align=center;html=1;whiteSpace=wrap;fontSize=10;fontStyle=1;spacing=3;shape=mxgraph.aws4.productIcon;prIcon=mxgraph.aws4.fargate;" vertex="1" parent="FzUE8dfUpmqvPbVTO9Rr-8">
          <mxGeometry x="10" y="70" width="30" height="80" as="geometry" />
        </mxCell>
        <mxCell id="FzUE8dfUpmqvPbVTO9Rr-9" value="" style="outlineConnect=0;dashed=0;verticalLabelPosition=bottom;verticalAlign=top;align=center;html=1;shape=mxgraph.aws3.internet_gateway;fillColor=#F58534;gradientColor=none;" vertex="1" parent="1">
          <mxGeometry x="131" y="219" width="59" height="72" as="geometry" />
        </mxCell>
        <mxCell id="FzUE8dfUpmqvPbVTO9Rr-10" value="" style="outlineConnect=0;dashed=0;verticalLabelPosition=bottom;verticalAlign=top;align=center;html=1;shape=mxgraph.aws3.ecs;fillColor=#F58534;gradientColor=none;" vertex="1" parent="1">
          <mxGeometry x="384" y="172.5" width="72" height="47.5" as="geometry" />
        </mxCell>
        <mxCell id="FzUE8dfUpmqvPbVTO9Rr-13" value="" style="sketch=0;outlineConnect=0;fontColor=#232F3E;gradientColor=none;fillColor=#ED7100;strokeColor=none;dashed=0;verticalLabelPosition=bottom;verticalAlign=top;align=center;html=1;fontSize=12;fontStyle=0;aspect=fixed;pointerEvents=1;shape=mxgraph.aws4.ecs_task;" vertex="1" parent="1">
          <mxGeometry x="397" y="270" width="37" height="48" as="geometry" />
        </mxCell>
        <mxCell id="FzUE8dfUpmqvPbVTO9Rr-14" value="" style="image;aspect=fixed;html=1;points=[];align=center;fontSize=12;image=img/lib/azure2/security/Application_Security_Groups.svg;" vertex="1" parent="1">
          <mxGeometry x="397" y="350" width="33.76" height="41" as="geometry" />
        </mxCell>
        <mxCell id="FzUE8dfUpmqvPbVTO9Rr-21" value="" style="points=[];aspect=fixed;html=1;align=center;shadow=0;dashed=0;fillColor=#FF6A00;strokeColor=none;shape=mxgraph.alibaba_cloud.ecs_elastic_compute_service;" vertex="1" parent="1">
          <mxGeometry x="510" y="190" width="38.6" height="35.98" as="geometry" />
        </mxCell>
        <mxCell id="FzUE8dfUpmqvPbVTO9Rr-26" value="ECS" style="text;html=1;align=center;verticalAlign=middle;whiteSpace=wrap;rounded=0;" vertex="1" parent="1">
          <mxGeometry x="380" y="220" width="60" height="30" as="geometry" />
        </mxCell>
        <mxCell id="FzUE8dfUpmqvPbVTO9Rr-27" value="Task" style="text;html=1;align=center;verticalAlign=middle;whiteSpace=wrap;rounded=0;" vertex="1" parent="1">
          <mxGeometry x="384" y="318" width="60" height="30" as="geometry" />
        </mxCell>
        <mxCell id="FzUE8dfUpmqvPbVTO9Rr-30" value="SG" style="text;html=1;align=center;verticalAlign=middle;whiteSpace=wrap;rounded=0;" vertex="1" parent="1">
          <mxGeometry x="354" y="370" width="60" height="30" as="geometry" />
        </mxCell>
        <mxCell id="FzUE8dfUpmqvPbVTO9Rr-34" value="" style="rounded=1;whiteSpace=wrap;html=1;" vertex="1" parent="1">
          <mxGeometry x="530" y="-70" width="120" height="40" as="geometry" />
        </mxCell>
        <mxCell id="FzUE8dfUpmqvPbVTO9Rr-36" value="Image" style="text;html=1;align=center;verticalAlign=middle;whiteSpace=wrap;rounded=0;" vertex="1" parent="1">
          <mxGeometry x="550" y="-70" width="60" height="30" as="geometry" />
        </mxCell>
        <mxCell id="FzUE8dfUpmqvPbVTO9Rr-39" value="" style="curved=1;endArrow=classic;html=1;rounded=0;entryX=0.833;entryY=-0.106;entryDx=0;entryDy=0;entryPerimeter=0;" edge="1" parent="1" target="FzUE8dfUpmqvPbVTO9Rr-35">
          <mxGeometry width="50" height="50" relative="1" as="geometry">
            <mxPoint x="650" y="-50" as="sourcePoint" />
            <mxPoint x="700" y="-90" as="targetPoint" />
            <Array as="points">
              <mxPoint x="700" y="-40" />
              <mxPoint x="650" y="-90" />
            </Array>
          </mxGeometry>
        </mxCell>
        <mxCell id="FzUE8dfUpmqvPbVTO9Rr-42" value="10.0.0.0/16" style="text;html=1;align=center;verticalAlign=middle;whiteSpace=wrap;rounded=0;" vertex="1" parent="1">
          <mxGeometry x="220" y="110" width="60" height="30" as="geometry" />
        </mxCell>
        <mxCell id="FzUE8dfUpmqvPbVTO9Rr-43" value="10.0.1.0/24" style="text;html=1;align=center;verticalAlign=middle;whiteSpace=wrap;rounded=0;" vertex="1" parent="1">
          <mxGeometry x="250" y="370" width="60" height="30" as="geometry" />
        </mxCell>
        <mxCell id="FzUE8dfUpmqvPbVTO9Rr-44" value="10.0.11.0/24" style="text;html=1;align=center;verticalAlign=middle;whiteSpace=wrap;rounded=0;" vertex="1" parent="1">
          <mxGeometry x="510" y="370" width="60" height="30" as="geometry" />
        </mxCell>
      </root>
    </mxGraphModel>
  </diagram>
  <diagram id="ouEwU5aGMf4nd-OeD3XI" name="Page-2">
    <mxGraphModel dx="1034" dy="1615" grid="1" gridSize="10" guides="1" tooltips="1" connect="1" arrows="1" fold="1" page="1" pageScale="1" pageWidth="827" pageHeight="1169" math="0" shadow="0">
      <root>
        <mxCell id="0" />
        <mxCell id="1" parent="0" />
        <mxCell id="Er9saWvDmZ84uE_uZYMK-1" value="AWS Account" style="points=[[0,0],[0.25,0],[0.5,0],[0.75,0],[1,0],[1,0.25],[1,0.5],[1,0.75],[1,1],[0.75,1],[0.5,1],[0.25,1],[0,1],[0,0.75],[0,0.5],[0,0.25]];outlineConnect=0;gradientColor=none;html=1;whiteSpace=wrap;fontSize=12;fontStyle=0;container=1;pointerEvents=0;collapsible=0;recursiveResize=0;shape=mxgraph.aws4.group;grIcon=mxgraph.aws4.group_account;strokeColor=#CD2264;fillColor=none;verticalAlign=top;align=left;spacingLeft=30;fontColor=#CD2264;dashed=0;" vertex="1" parent="1">
          <mxGeometry x="80" y="80" width="600" height="320" as="geometry" />
        </mxCell>
        <mxCell id="Er9saWvDmZ84uE_uZYMK-27" value="" style="rounded=1;whiteSpace=wrap;html=1;" vertex="1" parent="Er9saWvDmZ84uE_uZYMK-1">
          <mxGeometry x="460" y="-30" width="120" height="60" as="geometry" />
        </mxCell>
        <mxCell id="eaSu-VhJybkSw0w6oC0I-1" value="ECR Repository" style="text;html=1;align=center;verticalAlign=middle;whiteSpace=wrap;rounded=0;" vertex="1" parent="Er9saWvDmZ84uE_uZYMK-1">
          <mxGeometry x="486.5" y="-15" width="60" height="30" as="geometry" />
        </mxCell>
        <mxCell id="Er9saWvDmZ84uE_uZYMK-2" value="VPC" style="sketch=0;outlineConnect=0;gradientColor=none;html=1;whiteSpace=wrap;fontSize=12;fontStyle=0;shape=mxgraph.aws4.group;grIcon=mxgraph.aws4.group_vpc;strokeColor=#B6BABF;fillColor=none;verticalAlign=top;align=left;spacingLeft=30;fontColor=#B6BABF;dashed=0;" vertex="1" parent="1">
          <mxGeometry x="120" y="120" width="520" height="240" as="geometry" />
        </mxCell>
        <mxCell id="Er9saWvDmZ84uE_uZYMK-3" value="" style="rounded=1;arcSize=10;dashed=1;strokeColor=#F59D56;fillColor=none;gradientColor=none;dashPattern=8 4;strokeWidth=2;" vertex="1" parent="1">
          <mxGeometry x="160" y="160" width="440" height="80" as="geometry" />
        </mxCell>
        <mxCell id="Er9saWvDmZ84uE_uZYMK-4" value="" style="rounded=1;arcSize=10;dashed=1;strokeColor=#F59D56;fillColor=none;gradientColor=none;dashPattern=8 4;strokeWidth=2;" vertex="1" parent="1">
          <mxGeometry x="160" y="280" width="440" height="60" as="geometry" />
        </mxCell>
        <mxCell id="Er9saWvDmZ84uE_uZYMK-8" value="Public subnet" style="points=[[0,0],[0.25,0],[0.5,0],[0.75,0],[1,0],[1,0.25],[1,0.5],[1,0.75],[1,1],[0.75,1],[0.5,1],[0.25,1],[0,1],[0,0.75],[0,0.5],[0,0.25]];outlineConnect=0;gradientColor=none;html=1;whiteSpace=wrap;fontSize=12;fontStyle=0;container=1;pointerEvents=0;collapsible=0;recursiveResize=0;shape=mxgraph.aws4.group;grIcon=mxgraph.aws4.group_security_group;grStroke=0;strokeColor=#7AA116;fillColor=#F2F6E8;verticalAlign=top;align=left;spacingLeft=30;fontColor=#248814;dashed=0;" vertex="1" parent="1">
          <mxGeometry x="180" y="140" width="170" height="210" as="geometry" />
        </mxCell>
        <mxCell id="Er9saWvDmZ84uE_uZYMK-9" value="Private subnet" style="points=[[0,0],[0.25,0],[0.5,0],[0.75,0],[1,0],[1,0.25],[1,0.5],[1,0.75],[1,1],[0.75,1],[0.5,1],[0.25,1],[0,1],[0,0.75],[0,0.5],[0,0.25]];outlineConnect=0;gradientColor=none;html=1;whiteSpace=wrap;fontSize=12;fontStyle=0;container=1;pointerEvents=0;collapsible=0;recursiveResize=0;shape=mxgraph.aws4.group;grIcon=mxgraph.aws4.group_security_group;grStroke=0;strokeColor=#00A4A6;fillColor=#E6F6F7;verticalAlign=top;align=left;spacingLeft=30;fontColor=#147EBA;dashed=0;" vertex="1" parent="1">
          <mxGeometry x="420" y="140" width="160" height="210" as="geometry" />
        </mxCell>
        <mxCell id="Er9saWvDmZ84uE_uZYMK-17" value="" style="endArrow=classic;html=1;rounded=0;entryX=-0.129;entryY=0.674;entryDx=0;entryDy=0;entryPerimeter=0;" edge="1" parent="Er9saWvDmZ84uE_uZYMK-9" target="Er9saWvDmZ84uE_uZYMK-12">
          <mxGeometry width="50" height="50" relative="1" as="geometry">
            <mxPoint x="55" y="170" as="sourcePoint" />
            <mxPoint x="105" y="120" as="targetPoint" />
          </mxGeometry>
        </mxCell>
        <mxCell id="Er9saWvDmZ84uE_uZYMK-10" value="Amazon EKS" style="sketch=0;outlineConnect=0;fontColor=#232F3E;gradientColor=none;strokeColor=#ffffff;fillColor=#232F3E;dashed=0;verticalLabelPosition=middle;verticalAlign=bottom;align=center;html=1;whiteSpace=wrap;fontSize=10;fontStyle=1;spacing=3;shape=mxgraph.aws4.productIcon;prIcon=mxgraph.aws4.eks;" vertex="1" parent="1">
          <mxGeometry x="430" y="180" width="50" height="80" as="geometry" />
        </mxCell>
        <mxCell id="Er9saWvDmZ84uE_uZYMK-11" value="" style="aspect=fixed;sketch=0;html=1;dashed=0;whitespace=wrap;verticalLabelPosition=bottom;verticalAlign=top;fillColor=#2875E2;strokeColor=#ffffff;points=[[0.005,0.63,0],[0.1,0.2,0],[0.9,0.2,0],[0.5,0,0],[0.995,0.63,0],[0.72,0.99,0],[0.5,1,0],[0.28,0.99,0]];shape=mxgraph.kubernetes.icon2;kubernetesLabel=1;prIcon=pod" vertex="1" parent="1">
          <mxGeometry x="420" y="280" width="50" height="48" as="geometry" />
        </mxCell>
        <mxCell id="Er9saWvDmZ84uE_uZYMK-12" value="" style="points=[];aspect=fixed;html=1;align=center;shadow=0;dashed=0;fillColor=#FF6A00;strokeColor=none;shape=mxgraph.alibaba_cloud.ahas_application_high_availability_service;" vertex="1" parent="1">
          <mxGeometry x="520" y="277.15" width="46.5" height="53.7" as="geometry" />
        </mxCell>
        <mxCell id="Er9saWvDmZ84uE_uZYMK-13" value="" style="aspect=fixed;sketch=0;html=1;dashed=0;whitespace=wrap;verticalLabelPosition=bottom;verticalAlign=top;fillColor=#2875E2;strokeColor=#ffffff;points=[[0.005,0.63,0],[0.1,0.2,0],[0.9,0.2,0],[0.5,0,0],[0.995,0.63,0],[0.72,0.99,0],[0.5,1,0],[0.28,0.99,0]];shape=mxgraph.kubernetes.icon2;kubernetesLabel=1;prIcon=node" vertex="1" parent="1">
          <mxGeometry x="530" y="180" width="50" height="48" as="geometry" />
        </mxCell>
        <mxCell id="Er9saWvDmZ84uE_uZYMK-16" value="" style="endArrow=classic;html=1;rounded=0;entryX=0.005;entryY=0.63;entryDx=0;entryDy=0;entryPerimeter=0;" edge="1" parent="1" target="Er9saWvDmZ84uE_uZYMK-13">
          <mxGeometry width="50" height="50" relative="1" as="geometry">
            <mxPoint x="450" y="260" as="sourcePoint" />
            <mxPoint x="500" y="210" as="targetPoint" />
          </mxGeometry>
        </mxCell>
        <mxCell id="Er9saWvDmZ84uE_uZYMK-22" value="" style="points=[];aspect=fixed;html=1;align=center;shadow=0;dashed=0;fillColor=#FF6A00;strokeColor=none;shape=mxgraph.alibaba_cloud.alb_application_load_balancer_02;" vertex="1" parent="1">
          <mxGeometry x="580" y="228" width="60" height="60" as="geometry" />
        </mxCell>
        <mxCell id="Er9saWvDmZ84uE_uZYMK-23" value="" style="endArrow=classic;html=1;rounded=0;" edge="1" parent="1">
          <mxGeometry width="50" height="50" relative="1" as="geometry">
            <mxPoint x="550" y="327.15" as="sourcePoint" />
            <mxPoint x="600" y="277.15" as="targetPoint" />
          </mxGeometry>
        </mxCell>
        <mxCell id="Er9saWvDmZ84uE_uZYMK-24" value="Service&lt;div&gt;&lt;br&gt;&lt;/div&gt;" style="text;html=1;align=center;verticalAlign=middle;whiteSpace=wrap;rounded=0;" vertex="1" parent="1">
          <mxGeometry x="490" y="328" width="60" height="30" as="geometry" />
        </mxCell>
        <mxCell id="Er9saWvDmZ84uE_uZYMK-25" value="LB" style="text;html=1;align=center;verticalAlign=middle;whiteSpace=wrap;rounded=0;" vertex="1" parent="1">
          <mxGeometry x="590" y="288" width="60" height="30" as="geometry" />
        </mxCell>
        <mxCell id="Er9saWvDmZ84uE_uZYMK-26" value="" style="rounded=0;whiteSpace=wrap;html=1;" vertex="1" parent="1">
          <mxGeometry x="530" y="-60" width="120" height="60" as="geometry" />
        </mxCell>
        <mxCell id="Er9saWvDmZ84uE_uZYMK-28" value="Image" style="text;html=1;align=center;verticalAlign=middle;whiteSpace=wrap;rounded=0;" vertex="1" parent="1">
          <mxGeometry x="540" y="-45" width="60" height="30" as="geometry" />
        </mxCell>
        <mxCell id="eaSu-VhJybkSw0w6oC0I-2" value="" style="curved=1;endArrow=classic;html=1;rounded=0;entryX=0.722;entryY=-0.117;entryDx=0;entryDy=0;entryPerimeter=0;" edge="1" parent="1" target="Er9saWvDmZ84uE_uZYMK-27">
          <mxGeometry width="50" height="50" relative="1" as="geometry">
            <mxPoint x="650" y="-15" as="sourcePoint" />
            <mxPoint x="700" y="-65" as="targetPoint" />
            <Array as="points">
              <mxPoint x="700" y="-15" />
              <mxPoint x="650" y="-65" />
            </Array>
          </mxGeometry>
        </mxCell>
        <mxCell id="eaSu-VhJybkSw0w6oC0I-3" value="" style="curved=1;endArrow=classic;html=1;rounded=0;entryX=1;entryY=0.417;entryDx=0;entryDy=0;entryPerimeter=0;" edge="1" parent="1" target="Er9saWvDmZ84uE_uZYMK-11">
          <mxGeometry width="50" height="50" relative="1" as="geometry">
            <mxPoint x="660" y="100" as="sourcePoint" />
            <mxPoint x="710" y="50" as="targetPoint" />
            <Array as="points">
              <mxPoint x="710" y="100" />
              <mxPoint x="660" y="50" />
            </Array>
          </mxGeometry>
        </mxCell>
      </root>
    </mxGraphModel>
  </diagram>
</mxfile>
